<svg width="141" height="20" viewBox="0 0 141 20" fill="none" xmlns="http://www.w3.org/2000/svg">
<g clip-path="url(#clip0_1_2)">
<path d="M12.5249 14.9748L0 9.54546V6.51516L12.5249 1.11111V4.64647L3.78776 7.9798L12.5249 11.4647V14.9748Z" fill="#493371"/>
<path d="M21.969 15V11.4899L30.7061 8.03031L21.1105 4.29293L21.969 1.13637L34.4939 6.56566V9.54546L21.969 15Z" fill="#493371"/>
<path d="M21.969 1.13637L17.3732 20H13.8885L18.4338 1.13637H21.969Z" fill="#493371"/>
<path d="M41.6149 16.6667V3.00505C43.1162 2.67806 44.6489 2.51716 46.1854 2.52525H46.9177C47.9543 2.45326 48.978 2.78847 49.7712 3.4596C50.1032 3.81293 50.3596 4.23037 50.5246 4.68631C50.6896 5.14226 50.7598 5.6271 50.7307 6.11111V9.54546C50.7598 10.0295 50.6896 10.5143 50.5246 10.9703C50.3596 11.4262 50.1032 11.8436 49.7712 12.197C48.978 12.8681 47.9543 13.2033 46.9177 13.1313H46.1854C45.3402 13.12 44.4966 13.0525 43.6603 12.9293V16.6667H41.6149ZM48.7106 9.41919V6.26263C48.7405 5.98668 48.7069 5.70755 48.6122 5.44663C48.5175 5.18571 48.3644 4.94992 48.1645 4.75734C47.9646 4.56477 47.7233 4.42051 47.4591 4.33563C47.1948 4.25076 46.9146 4.22751 46.64 4.26768H45.8824C45.14 4.2698 44.3982 4.31195 43.6603 4.39394V11.2374C44.3971 11.3345 45.1393 11.3852 45.8824 11.3889H46.64C46.9169 11.4299 47.1996 11.4063 47.466 11.3201C47.7324 11.2338 47.9753 11.0872 48.1757 10.8917C48.3761 10.6962 48.5286 10.457 48.6214 10.1928C48.7142 9.92864 48.7447 9.6466 48.7106 9.36869V9.41919ZM58.1043 2.57576H58.5083C59.5142 2.57659 60.5187 2.65256 61.5133 2.80303V4.29293H58.3315C58.093 4.25478 57.8487 4.27328 57.6186 4.34694C57.3885 4.4206 57.179 4.54736 57.0069 4.71697C56.8349 4.88658 56.7051 5.09429 56.6282 5.32331C56.5512 5.55234 56.5292 5.79625 56.5639 6.03535V13.0303H54.5438V5.93434C54.5438 3.66162 55.7306 2.52525 58.1043 2.52525V2.57576ZM71.917 9.41919V6.26263C71.9608 5.7066 71.789 5.15503 71.4372 4.72222C70.9915 4.35771 70.4192 4.18513 69.8463 4.24243H68.4575C67.8927 4.18918 67.3298 4.36168 66.8919 4.72222C66.5401 5.15503 66.3683 5.7066 66.4121 6.26263V9.36869C66.3629 9.92531 66.5353 10.4789 66.8919 10.9091C67.1068 11.0921 67.3557 11.2309 67.6244 11.3176C67.893 11.4042 68.1761 11.437 68.4575 11.4141H69.8463C70.1317 11.439 70.4192 11.4072 70.6922 11.3206C70.9652 11.2339 71.2184 11.094 71.4372 10.9091C71.7938 10.4789 71.9662 9.92531 71.917 9.36869V9.41919ZM64.3414 9.41919V6.13636C64.3414 3.61111 65.6545 2.47475 68.2555 2.47475H70.0231C72.5483 2.47475 73.9119 3.68687 73.9119 6.13636V9.41919C73.9119 11.9444 72.624 13.0556 70.0231 13.0556H68.2555C65.6798 13.1061 64.3667 11.8939 64.3667 9.4697L64.3414 9.41919ZM82.4469 11.3636H84.6438V12.8283C83.9577 12.9927 83.2534 13.0691 82.5479 13.0556H81.8662C81.4429 13.0784 81.0194 13.0164 80.6205 12.8733C80.2215 12.7302 79.8552 12.5089 79.543 12.2222C79.2515 11.9133 79.0269 11.5475 78.8835 11.1477C78.7401 10.7479 78.6809 10.3228 78.7097 9.89899V4.36869H76.8916V2.67677H78.7097V0H80.7298V2.67677H84.4923V4.36869H80.7551V9.69697C80.7212 9.93034 80.7422 10.1684 80.8165 10.3922C80.8909 10.616 81.0164 10.8193 81.1831 10.9861C81.3499 11.1528 81.5532 11.2784 81.777 11.3527C82.0008 11.427 82.2388 11.448 82.4722 11.4141L82.4469 11.3636ZM95.3506 9.31818V6.26263C95.3944 5.7066 95.2226 5.15503 94.8708 4.72222C94.4251 4.35771 93.8529 4.18513 93.2799 4.24243H91.8911C91.3263 4.18918 90.7634 4.36168 90.3255 4.72222C89.9737 5.15503 89.8019 5.7066 89.8457 6.26263V9.36869C89.7965 9.92531 89.9689 10.4789 90.3255 10.9091C90.5404 11.0921 90.7893 11.2309 91.058 11.3176C91.3266 11.4042 91.6097 11.437 91.8911 11.4141H93.2799C93.5653 11.439 93.8528 11.4072 94.1258 11.3206C94.3989 11.2339 94.652 11.094 94.8708 10.9091C95.2364 10.4827 95.4181 9.92877 95.3758 9.36869L95.3506 9.31818ZM87.7751 9.31818V6.03535C87.7751 3.5101 89.0629 2.37374 91.6638 2.37374H93.4315C95.9566 2.37374 97.3202 3.58586 97.3202 6.03535V9.31818C97.3202 11.8434 96.0324 12.9545 93.4315 12.9545H91.6638C89.1386 13.1061 87.8508 11.8939 87.8508 9.4697L87.7751 9.31818ZM103.179 12.8283H101.158V3.00505C102.669 2.68155 104.21 2.5207 105.754 2.52525H106.461C107.49 2.45725 108.504 2.79238 109.29 3.4596C109.622 3.81293 109.878 4.23037 110.043 4.68631C110.208 5.14226 110.278 5.6271 110.249 6.11111V12.9798H108.279V6.28788C108.317 6.01375 108.291 5.73462 108.203 5.47236C108.114 5.21009 107.967 4.9718 107.771 4.77614C107.575 4.58048 107.337 4.43276 107.075 4.34455C106.813 4.25634 106.533 4.23003 106.259 4.26768H105.502C104.767 4.27126 104.033 4.32187 103.305 4.41919L103.179 12.8283Z" fill="#493371"/>
<path d="M114.365 11.0859C114.481 10.9703 114.619 10.8795 114.771 10.8187C114.923 10.7579 115.085 10.7286 115.249 10.7323C115.408 10.7319 115.566 10.763 115.713 10.8236C115.861 10.8843 115.995 10.9734 116.108 11.0859C116.22 11.1987 116.309 11.3326 116.37 11.48C116.43 11.6273 116.461 11.7851 116.461 11.9444C116.461 12.1038 116.43 12.2616 116.37 12.4089C116.309 12.5563 116.22 12.6902 116.108 12.803C115.995 12.9155 115.861 13.0046 115.713 13.0653C115.566 13.1259 115.408 13.157 115.249 13.1566C115.085 13.1603 114.923 13.131 114.771 13.0702C114.619 13.0094 114.481 12.9186 114.365 12.803C114.253 12.6902 114.164 12.5563 114.103 12.4089C114.042 12.2616 114.011 12.1038 114.012 11.9444C114.011 11.7851 114.042 11.6273 114.103 11.48C114.164 11.3326 114.253 11.1987 114.365 11.0859V11.0859ZM128.91 6.03535V12.601C127.421 12.8898 125.907 13.0335 124.39 13.0303H123.431C122.527 13.0753 121.635 12.8078 120.905 12.2727C120.604 12.0169 120.368 11.6939 120.214 11.3299C120.061 10.9659 119.995 10.5709 120.022 10.1768V9.59596C120.002 9.19895 120.071 8.80259 120.224 8.43568C120.377 8.06877 120.61 7.74051 120.905 7.47475C121.635 6.93968 122.527 6.67217 123.431 6.71717H124.213C125.058 6.72607 125.901 6.7851 126.739 6.89394V6.16162C126.773 5.88701 126.743 5.6082 126.651 5.34702C126.56 5.08584 126.409 4.84939 126.211 4.65617C126.013 4.46295 125.773 4.31821 125.51 4.23329C125.246 4.14836 124.967 4.12556 124.693 4.16667H120.905V2.80303C122.158 2.60732 123.425 2.51442 124.693 2.52525H125.097C126.134 2.45326 127.157 2.78847 127.951 3.4596C128.283 3.81293 128.539 4.23037 128.704 4.68631C128.869 5.14225 128.939 5.6271 128.91 6.11111V6.03535ZM124.693 8.23232H123.809C122.622 8.23232 122.042 8.68687 122.042 9.59596V10.0253C122.042 10.9596 122.622 11.4141 123.809 11.4141H124.769C125.475 11.4549 126.184 11.4549 126.89 11.4141V8.4596C126.162 8.35533 125.428 8.30469 124.693 8.30808V8.23232ZM132.723 4.29293V2.60101H140.778V4.09091L135.122 11.1869H140.93V12.904H132.597V11.3889L138.253 4.29293H132.723Z" fill="#493371"/>
</g>
<defs>
<clipPath id="clip0_1_2">
<rect width="140.93" height="20" fill="white"/>
</clipPath>
</defs>
</svg>
